<svg width="246" height="346" viewBox="0 0 246 346" fill="none" xmlns="http://www.w3.org/2000/svg">
<path d="M149 160.103C149 160.103 150.425 166.077 153.5 167.501C156.575 168.926 158.029 167.025 158 165.227C157.97 163.429 154.712 158 154.712 158" stroke="#E2E2E2" stroke-miterlimit="10"/>
<path d="M154.921 23.9292C155.358 23.4134 156.601 22.7192 157.283 22.6938C157.283 22.6938 168.504 19.3505 175.887 27.3425C184.256 36.4108 199.919 102.869 203.292 117.522C203.723 119.407 203.948 121.324 203.955 123.26L204 133.003C204.013 135.455 201.792 137.372 199.352 136.939C194.086 136.003 181.964 130.723 169.122 108.715C169.122 108.715 168.813 108.205 168.703 107.932C167.178 104.111 155.758 74.7408 153.788 47.4468C152.191 25.3047 153.253 25.8906 154.914 23.9292H154.921Z" stroke="#E2E2E2" stroke-miterlimit="10"/>
<path d="M123.792 35.5905C122.161 36.3368 121.057 37.9189 120.913 39.7305C120.185 48.7888 117.933 76.0913 116.634 83.019C114.715 93.2127 111.86 139.257 116.546 149.196C119.457 155.371 124.821 156.972 124.821 156.972C124.821 156.972 134.212 158.598 143.082 137.197C150.641 118.959 141.457 53.3626 138.584 34.3912C138.189 31.7822 135.46 30.2703 133.089 31.3548L123.804 35.5841L123.792 35.5905Z" stroke="#E2E2E2" stroke-miterlimit="10"/>
<path d="M52.2435 53.2652C52.2435 53.2652 37.1126 48.3485 38.041 80.8521C38.1414 84.2608 38.6997 87.6442 39.6972 90.9072C43.2164 102.432 53.3538 130.792 69.6201 137.483C90.1584 145.935 101.651 116.6 103.125 110.283C104.744 103.357 109.279 86.7065 93.6777 76.0304C59.9344 52.9421 52.2497 53.2589 52.2497 53.2589L52.2435 53.2652Z" stroke="#E2E2E2" stroke-miterlimit="10"/>
<path d="M194.586 162.311C194.586 162.311 194.767 150.624 211.609 152.135C228.451 153.652 212.728 177.95 201.834 178C190.94 178.05 194.586 162.305 194.586 162.305V162.311Z" stroke="#E2E2E2" stroke-miterlimit="10"/>
<path d="M97.0754 176.942C106.192 170.827 109.859 160.318 105.265 153.469C100.671 146.62 89.5566 146.024 80.44 152.139C71.3233 158.253 67.6568 168.763 72.2506 175.612C76.8443 182.461 87.9588 183.056 97.0754 176.942Z" stroke="#E2E2E2" stroke-miterlimit="10"/>
<path d="M181.755 166.096C183.641 174.198 174.422 182.099 161.908 186.373C149.083 190.757 137.121 185.791 135.235 177.321C133.426 169.206 142.238 160.141 155.083 157.043C167.927 153.94 179.869 157.994 181.755 166.096Z" stroke="#E2E2E2" stroke-miterlimit="10"/>
<path d="M90.3994 211.834C90.3994 211.834 84.5656 185.248 117.491 188.234C123.144 188.747 128.431 191.283 132.31 195.372C135.333 198.566 137.931 202.503 136.677 205.786C133.86 213.184 124.289 272.84 114.024 286.031C112.873 287.508 110.557 287.255 109.785 285.556C104.916 274.837 91.5057 237.595 90.3929 211.827L90.3994 211.834Z" stroke="#E2E2E2" stroke-miterlimit="10"/>
<path d="M78.0208 228.149L90.871 272.177C91.7041 275.035 88.3148 277.212 86.0995 275.245L27.0746 222.865C27.0746 222.865 21.1608 209.059 29.3026 207.525C29.3026 207.525 30.9751 205.978 36.3525 208.194C43.4466 211.122 67.6574 217.143 78.0208 228.149Z" stroke="#E2E2E2" stroke-miterlimit="10"/>
<path d="M189 144C188.005 144 158.046 144.143 158 134.626C157.942 122.704 189 144 189 144Z" stroke="#E2E2E2" stroke-miterlimit="10"/>
<path d="M205 43.0063C205 43.0063 211.333 118.461 223.672 138.158C224.465 139.426 226.324 139.223 226.847 137.809C227.659 135.616 228.435 132.522 227.715 129.853C226.435 125.124 205 43 205 43V43.0063Z" stroke="#E2E2E2" stroke-miterlimit="10"/>
<path d="M20.0204 58.0209C21.2436 52.6642 27.4114 30.7447 45.9727 33.1895C46.8933 33.3127 47.3247 34.4087 46.7195 35.1156C42.2514 40.3101 27.6625 56.8276 21.0312 58.9612C20.4453 59.1493 19.8852 58.624 20.0204 58.0273V58.0209Z" stroke="#E2E2E2" stroke-miterlimit="10"/>
<path d="M93.5471 49.9249C94.0667 49.9249 94.1758 49.1442 93.6818 48.9812C85.6188 46.3268 62.5973 38.9677 58.7935 40.1218C56.2405 40.8957 60.3073 43.8285 64.4703 46.3064C68.6333 48.7844 73.1876 50.0267 77.8894 49.9996L93.5407 49.9181L93.5471 49.9249Z" stroke="#E2E2E2" stroke-miterlimit="10"/>
<path d="M30.5504 226.454C30.5504 226.454 20.6997 220.997 19.7742 207.803C18.7917 193.823 14.0184 86.8354 16.928 85.5236C16.928 85.5236 17.8662 78.0582 19.172 80.4854C20.4778 82.9126 24.8517 84.1864 60.7175 172.612C66.9741 188.03 84.1717 248.381 90.8783 272.184C91.6897 275.055 88.2603 277.21 86.0163 275.239L30.5504 226.447V226.454Z" stroke="#E2E2E2" stroke-miterlimit="10"/>
<path d="M123 291.306C123 291.306 152.317 314.36 158.868 321.627C165.418 328.888 176 317.169 176 317.169C176 317.169 134.339 282.983 123 291.306Z" stroke="#E2E2E2" stroke-miterlimit="10"/>
<path d="M7.62592 42.9782C8.54588 38.7944 11.8704 27.6692 21.7109 23.5298C22.7705 23.086 23.8046 22.5662 24.769 21.9387C28.9311 19.2318 40.6876 12.2018 47.673 14.1415C54.2904 15.9799 87.5107 23.6756 102.465 27.1241C107.141 28.2017 112.045 27.3079 116.036 24.6582L148.692 2.98465C148.692 2.98465 155.804 -1.42105 167.973 2.8959C176.532 5.92601 193.522 14.1796 202.855 18.8135C207.017 20.88 210.183 24.525 211.649 28.9307L241.748 119.555C241.837 119.828 241.938 120.1 242.04 120.373C242.96 122.725 248.226 137.133 242.021 143.834C237.059 149.197 248.943 169.051 226.343 185.457C222.378 188.341 221.756 194.11 217.372 196.309C208.382 200.823 194.849 210.978 194.861 214.458C194.918 226.598 194.417 251.846 202.303 275.605C210.19 299.358 204.917 314.921 200.07 317.374C197.082 318.883 193.871 326.116 191.854 331.441C190.16 335.91 186.727 339.504 182.312 341.355C174 344.835 159.611 348.113 143.521 339.65C141.275 338.464 139.34 336.765 137.823 334.731C132.894 328.125 120.769 314.87 115.287 311.466C110.066 308.22 71.5223 282.319 65.5711 277.831C65.0445 277.431 64.5433 277.013 64.0674 276.556L20.5181 235.2C20.5181 235.2 4.2506 220.956 6.14129 210.141C8.00025 199.523 -6.61135 76.9687 6.56003 46.1795C7.00415 45.1462 7.36579 44.0813 7.60688 42.9846L7.62592 42.9782Z" stroke="#E2E2E2" stroke-miterlimit="10"/>
<path d="M177.146 328.398C181.008 327.232 183.929 325.591 183.67 324.732C183.41 323.873 180.069 324.122 176.207 325.287C172.345 326.452 169.424 328.093 169.684 328.952C169.943 329.811 173.284 329.563 177.146 328.398Z" stroke="#E2E2E2" stroke-miterlimit="10"/>
<path d="M152 204.689C152 204.689 182.938 208.146 198 192C198 192 165.157 194.454 152 204.689Z" stroke="#E2E2E2" stroke-miterlimit="10"/>
<path d="M30 100C30 100 37.6281 163.765 52 151.412" stroke="#E2E2E2" stroke-miterlimit="10"/>
<path d="M23 119C23 119 23.2261 165.761 25.4407 165.992C27.6552 166.223 31.7717 161.417 30.874 159.22C29.9762 157.023 23 119 23 119Z" stroke="#E2E2E2" stroke-miterlimit="10"/>
<path d="M41.0564 161C41.0564 161 36.1486 160.882 38.7712 165.815C41.3938 170.748 44.01 173.419 47.5557 168.025C51.1013 162.631 47.2056 161.98 45.576 161.651C43.9464 161.323 41.05 161 41.05 161H41.0564Z" stroke="#E2E2E2" stroke-miterlimit="10"/>
<path d="M31.0314 179.446C31.0314 179.446 33.1155 172.955 38.597 177.79C44.0785 182.624 46.958 192.654 45.7125 195.896C44.467 199.138 42.5925 201.746 35.6497 198.536C28.7069 195.332 26.0309 194.608 26 188.765C25.9877 186.069 31.0252 179.446 31.0252 179.446H31.0314Z" stroke="#E2E2E2" stroke-miterlimit="10"/>
<path d="M74 213C74 213 68.4087 211.59 59.3898 200.474C49.3114 188.038 64.9173 185 64.9173 185" stroke="#E2E2E2" stroke-miterlimit="10"/>
<path d="M85 150L82 180" stroke="#E2E2E2" stroke-miterlimit="10"/>
<path d="M72 176C72 176 82.7349 175.953 83 173" stroke="#E2E2E2" stroke-miterlimit="10"/>
<path d="M95.7542 193C95.7542 193 97.6334 217.984 91 212.104" stroke="#E2E2E2" stroke-miterlimit="10"/>
<path d="M110 188C110 188 119.825 216.842 133 220" stroke="#E2E2E2" stroke-miterlimit="10"/>
<path d="M94 238C94 238 112.508 249.834 116.7 252.377C122.973 256.176 124 260 124 260" stroke="#E2E2E2" stroke-miterlimit="10"/>
<path d="M91 215C91 215 94.0899 219.689 105.929 221.203C117.762 222.717 129 237 129 237" stroke="#E2E2E2" stroke-miterlimit="10"/>
<path d="M91 220C91 220 100.32 224.306 103 229L91.6569 224.528" stroke="#E2E2E2" stroke-miterlimit="10"/>
<path d="M156.136 157C156.136 157 160.82 161.926 162.24 166.252C162.24 166.252 166.703 178.232 154 188" stroke="#E2E2E2" stroke-miterlimit="10"/>
<path d="M138.788 166C138.788 166 143.268 178.708 135 175.472" stroke="#E2E2E2" stroke-miterlimit="10"/>
<path d="M166 199L164 205" stroke="#E2E2E2" stroke-miterlimit="10"/>
<path d="M185 194L181 202" stroke="#E2E2E2" stroke-miterlimit="10"/>
<path d="M209.056 174.715C210.461 174.607 211.208 169.435 210.726 163.162C210.243 156.889 208.713 151.892 207.308 152C205.903 152.108 205.156 157.281 205.638 163.553C206.121 169.826 207.651 174.824 209.056 174.715Z" stroke="#E2E2E2" stroke-miterlimit="10"/>
<path d="M172 134L168 142" stroke="#E2E2E2" stroke-miterlimit="10"/>
<path d="M177 137L173 143" stroke="#E2E2E2" stroke-miterlimit="10"/>
<path d="M175 143L180 138" stroke="#E2E2E2" stroke-miterlimit="10"/>
<path d="M110 222C110 222 128.885 239.5 129 238.989" stroke="#E2E2E2" stroke-miterlimit="10"/>
<path d="M96 196C96 196 91.2328 201.296 92.1071 202.671C92.9814 204.046 95.8341 206 95.8341 206" stroke="#E2E2E2" stroke-miterlimit="10"/>
<path d="M114 188C114 188 116.401 193.033 123.355 193C126.752 192.98 129 192.973 129 192.973" stroke="#E2E2E2" stroke-miterlimit="10"/>
<path d="M118 205C118 205 134.69 200.664 136 201.021" stroke="#E2E2E2" stroke-miterlimit="10"/>
<path d="M93 148C93 148 93.313 170.097 96 178" stroke="#E2E2E2" stroke-miterlimit="10"/>
<path d="M105 153C105 153 105 167.282 105 168" stroke="#E2E2E2" stroke-miterlimit="10"/>
<path d="M118 151C118 151 133.31 141.805 136 137" stroke="#E2E2E2" stroke-miterlimit="10"/>
<path d="M114 123.015C114 123.015 117.39 122.249 128.841 131.715C137.2 138.618 141 142 141 142" stroke="#E2E2E2" stroke-miterlimit="10"/>
<path d="M145.921 115C145.921 115 126.733 114.666 125.266 114.245C123.799 113.823 128.09 107.806 146 106" stroke="#E2E2E2" stroke-miterlimit="10"/>
<path d="M115 102C115 102 119.228 98.2187 128.753 98.3839C138.278 98.5491 136.935 95.196 136.935 95.196C136.935 95.196 135.909 88.5573 132.303 88.1595C128.697 87.7618 116.181 88.233 116.181 88.233" stroke="#E2E2E2" stroke-miterlimit="10"/>
<path d="M120.475 48C120.475 48 131.794 78.2385 126.667 80.6338C121.54 83.029 117 81.5462 117 81.5462" stroke="#E2E2E2" stroke-miterlimit="10"/>
<path d="M139.239 36C139.239 36 116.924 52.2748 135.182 55.8942C135.182 55.8942 140.963 56.4912 142 54.8494" stroke="#E2E2E2" stroke-miterlimit="10"/>
<path d="M143.337 70C143.337 70 127.518 80.0472 137.06 78.9103L144 76.2741" stroke="#E2E2E2" stroke-miterlimit="10"/>
<path d="M123 127L131 142" stroke="#E2E2E2" stroke-miterlimit="10"/>
<path d="M85 89C85 89 68.9475 109.013 68.8051 123.938C68.6627 138.862 68 136.917 68 136.917" stroke="#E2E2E2" stroke-miterlimit="10"/>
<path d="M105 101L95.891 103.846C95.891 103.846 93.3989 108.612 96.7503 110.382C100.102 112.151 103.33 109.561 103.33 109.561" stroke="#E2E2E2" stroke-miterlimit="10"/>
<path d="M70 61C70 61 77.4956 73.6574 78.7492 77.3209C80.0093 80.9844 83.6592 86.5366 87.6812 92.2854C88.2623 93.1094 88.8173 95.2263 89.196 98.1736C90.7107 109.944 90.1623 134.447 86.8911 136" stroke="#E2E2E2" stroke-miterlimit="10"/>
<path d="M88.1206 96C88.1206 96 63.3398 121.199 73.4052 123.74C73.4052 123.74 78.2703 126.269 83.6352 115.549L89 104.828" stroke="#E2E2E2" stroke-miterlimit="10"/>
<path d="M66.7818 21.0176C66.0112 20.8495 65.6764 21.9328 66.4028 22.2192C77.3428 26.5276 98.3321 34.2478 104.971 32.8282C112.001 31.3278 81.24 24.2053 66.7818 21.0176Z" stroke="#E2E2E2" stroke-miterlimit="10"/>
<path d="M141.055 12.5585C141.055 12.5585 142.726 14.0975 145.879 11.4287C149.032 8.75979 152.678 6.31171 152.962 4.98053C153.247 3.64935 151.836 3 151.836 3C151.836 3 140.106 9.47408 141.055 12.5585Z" stroke="#E2E2E2" stroke-miterlimit="10"/>
<path d="M170.609 23.6499C170.609 23.6499 172.396 39.6473 168.331 41.8398C164.273 44.0323 158 23 158 23" stroke="#E2E2E2" stroke-miterlimit="10"/>
<path d="M155 56.0001C155 56.0001 179.155 55.8929 169.879 61.7195L157.91 68" stroke="#E2E2E2" stroke-miterlimit="10"/>
<path d="M182.047 39C182.047 39 179.474 45.6744 180.098 49.5645C180.325 50.9929 181.513 52.0066 182.833 52L186 51.9802" stroke="#E2E2E2" stroke-miterlimit="10"/>
<path d="M189.094 62.1307C189.094 62.1307 179.256 58.7556 180.045 63.6677C180.834 68.5799 187.085 80.5057 191.23 83.4731C195.375 86.4404 196 89 196 89" stroke="#E2E2E2" stroke-miterlimit="10"/>
<path d="M160 79.466C160 79.466 177.108 76.6722 179.452 84.7655C181.797 92.8588 176.469 98.4277 166.197 100" stroke="#E2E2E2" stroke-miterlimit="10"/>
<path d="M163.16 91C163.16 91 168.764 83.7486 170.744 84.8135C172.724 85.8784 162.625 79.0326 161 83.5711" stroke="#E2E2E2" stroke-miterlimit="10"/>
<path d="M165 95C165 95 177.664 88.8265 180 91.8185" stroke="#E2E2E2" stroke-miterlimit="10"/>
<path d="M180.577 217.405C180.577 217.405 191.437 276.113 192.983 303.077C193.53 312.599 180.946 305.454 179.756 305.022C178.566 304.59 150.191 286.302 142.83 268.345C135.469 250.388 139.471 236.862 148.448 225.503C155.694 216.337 172.338 216.54 180.201 217.367C180.386 217.386 180.57 217.405 180.748 217.424" stroke="#E2E2E2" stroke-miterlimit="10"/>
<path d="M174.602 218C174.602 218 159.758 254.343 178.395 271.613C178.395 271.613 184.726 275.779 190 274.87" stroke="#E2E2E2" stroke-miterlimit="10"/>
<path d="M140 241C140 241 151.58 246.038 168.776 276.907C169.853 278.837 171.225 280.593 172.88 282.047C175.56 284.408 179.856 287.31 184.767 287.31C191.827 287.31 193 299 193 299" stroke="#E2E2E2" stroke-miterlimit="10"/>
</svg>
