<?xml version="1.0" encoding="UTF-8"?><svg id="Mesa_1" xmlns="http://www.w3.org/2000/svg" viewBox="0 0 595.68 792"><defs><style>.cls-1{stroke:#231f20;}.cls-1,.cls-2{fill:none;stroke-miterlimit:10;}.cls-2{stroke:#000;}</style></defs><path class="cls-2" d="m341.7,404.3s2.41,9.77,7.61,12.1,7.66-.78,7.61-3.72-5.56-11.82-5.56-11.82"/><path class="cls-2" d="m352.41,190.24c.68-.81,2.61-1.9,3.67-1.94,0,0,17.43-5.25,28.9,7.3,13,14.24,37.33,118.6,42.57,141.61.67,2.96,1.02,5.97,1.03,9.01l.07,15.3c.02,3.85-3.43,6.86-7.22,6.18-8.18-1.47-27.01-9.76-46.96-44.32,0,0-.48-.8-.65-1.23-2.37-6-20.11-52.12-23.17-94.98-2.48-34.77-.83-33.85,1.75-36.93Z"/><path class="cls-2" d="m302.97,208.93c-2.6,1.17-4.36,3.65-4.59,6.49-1.16,14.2-4.75,57-6.82,67.86-3.06,15.98-7.61,88.16-.14,103.74,4.64,9.68,13.19,12.19,13.19,12.19,0,0,14.97,2.55,29.11-31,12.05-28.59-2.59-131.42-7.17-161.16-.63-4.09-4.98-6.46-8.76-4.76l-14.8,6.63Z"/><path class="cls-2" d="m189.59,235.85s-24.12-7.76-22.64,43.54c.16,5.38,1.05,10.72,2.64,15.87,5.61,18.19,21.77,62.95,47.7,73.51,32.74,13.34,51.06-32.96,53.41-42.93,2.58-10.93,9.81-37.21-15.06-54.06-53.79-36.44-66.04-35.94-66.04-35.94Z"/><path class="cls-2" d="m414.72,408.23s.28-18.72,26.33-16.3c26.05,2.43,1.73,41.35-15.12,41.43-16.85.08-11.21-25.14-11.21-25.14Z"/><ellipse class="cls-2" cx="247.54" cy="411.89" rx="31.32" ry="23.53" transform="translate(-187.49 207.73) rotate(-33.85)"/><path class="cls-2" d="m393.99,414.68c2.97,12.53-11.55,24.75-31.26,31.36-20.2,6.78-39.04-.9-42.01-14-2.85-12.55,11.03-26.57,31.26-31.36,20.23-4.8,39.04,1.47,42.01,14Z"/><path class="cls-2" d="m250.52,486.28s-9.07-41.94,42.12-37.23c8.79.81,17.01,4.81,23.04,11.26,4.7,5.04,8.74,11.25,6.79,16.43-4.38,11.67-19.26,105.78-35.22,126.59-1.79,2.33-5.39,1.93-6.59-.75-7.57-16.91-28.42-75.66-30.15-116.31Z"/><path class="cls-2" d="m230.73,511.91l20.36,69.17c1.32,4.49-4.05,7.91-7.56,4.82l-93.52-82.29s-9.37-21.69,3.53-24.1c0,0,2.65-2.43,11.17,1.05,11.24,4.6,49.6,14.06,66.02,31.35Z"/><path class="cls-2" d="m404.74,379.34c-1.53,0-47.6.23-47.67-15.09-.09-19.19,47.67,15.09,47.67,15.09Z"/><path class="cls-2" d="m430.03,220.92s10.29,119.02,30.34,150.09c1.29,2,4.31,1.68,5.16-.55,1.32-3.46,2.58-8.34,1.41-12.55-2.08-7.46-36.91-137-36.91-137Z"/><path class="cls-2" d="m139.36,243.57c1.9-8.26,11.48-42.06,40.31-38.29,1.43.19,2.1,1.88,1.16,2.97-6.94,8.01-29.6,33.48-39.9,36.77-.91.29-1.78-.52-1.57-1.44Z"/><path class="cls-2" d="m254.98,230.62c.81,0,.98-1.15.21-1.39-12.57-3.91-48.46-14.75-54.39-13.05-3.98,1.14,2.36,5.46,8.85,9.11s13.59,5.48,20.92,5.44l24.4-.12Z"/><path class="cls-2" d="m156.17,509.04s-15.54-8.61-17-29.43c-1.55-22.06-9.08-190.88-4.49-192.95,0,0,1.48-11.78,3.54-7.95s8.96,5.84,65.54,145.37c9.87,24.33,37,119.56,47.58,157.12,1.28,4.53-4.13,7.93-7.67,4.82l-87.5-76.99Z"/><path class="cls-2" d="m301.36,611.77s46.1,36.04,56.4,47.4c10.3,11.35,26.94-6.97,26.94-6.97,0,0-65.51-53.44-83.34-40.43Z"/><path class="cls-2" d="m119.03,219.84c1.45-6.6,6.69-24.15,22.2-30.68,1.67-.7,3.3-1.52,4.82-2.51,6.56-4.27,25.09-15.36,36.1-12.3,10.43,2.9,62.79,15.04,86.36,20.48,7.37,1.7,15.1.29,21.39-3.89l51.47-34.19s11.21-6.95,30.39-.14c13.49,4.78,40.27,17.8,54.98,25.11,6.56,3.26,11.55,9.01,13.86,15.96l47.44,142.96c.14.43.3.86.46,1.29,1.45,3.71,9.75,26.44-.03,37.01-7.82,8.46,10.91,39.78-24.71,65.66-6.25,4.55-7.23,13.65-14.14,17.12-14.17,7.12-35.5,23.14-35.48,28.63.09,19.15-.7,58.98,11.73,96.46,12.43,37.47,4.12,62.02-3.52,65.89-4.71,2.38-9.77,13.79-12.95,22.19-2.67,7.05-8.08,12.72-15.04,15.64-13.1,5.49-35.78,10.66-61.14-2.69-3.54-1.87-6.59-4.55-8.98-7.76-7.77-10.42-26.88-31.33-35.52-36.7-8.23-5.12-68.98-45.98-78.36-53.06-.83-.63-1.62-1.29-2.37-2.01l-68.64-65.24s-25.64-22.47-22.66-39.53c2.93-16.75-20.1-210.08.66-258.65.7-1.63,1.27-3.31,1.65-5.04Z"/><ellipse class="cls-2" cx="386.02" cy="667.71" rx="11.51" ry="2.56" transform="translate(-176.38 139.93) rotate(-16.79)"/><path class="cls-2" d="m347.49,475.61s49.05,5.38,72.93-19.75c0,0-52.07,3.82-72.93,19.75Z"/><path class="cls-2" d="m155.53,310.93s11.99,99,34.58,79.82"/><path class="cls-2" d="m144.13,340.74s.34,72.78,3.67,73.14,9.52-7.12,8.17-10.54-11.84-62.6-11.84-62.6Z"/><path class="cls-2" d="m173.08,406.48s-7.71-.18-3.59,7.32,8.23,11.56,13.8,3.36-.55-9.19-3.11-9.69-7.11-.99-7.11-.99Z"/><path class="cls-2" d="m156.12,434.65s3.38-10.23,12.27-2.61c8.89,7.62,13.56,23.43,11.54,28.54s-5.06,9.22-16.32,4.16c-11.26-5.05-15.6-6.19-15.65-15.4-.02-4.25,8.15-14.69,8.15-14.69Z"/><path class="cls-2" d="m224.43,488.11s-8.76-2.19-22.89-19.46c-15.79-19.32,8.66-24.04,8.66-24.04"/><line class="cls-2" x1="241.58" y1="388.51" x2="236.5" y2="437.06"/><path class="cls-2" d="m221.53,429.34s15.79-.06,16.18-3.8"/><path class="cls-2" d="m258.97,456.63s3.34,38.79-8.45,29.66"/><path class="cls-2" d="m280.44,448.85s15.75,45.03,36.87,49.96"/><path class="cls-2" d="m256.54,526.91s28.65,18.94,35.14,23.01c9.71,6.08,11.3,12.2,11.3,12.2"/><path class="cls-2" d="m250.8,490.9s4.93,7.62,23.82,10.08c18.88,2.46,36.81,25.67,36.81,25.67"/><path class="cls-2" d="m251.6,499.12s14.33,7.01,18.45,14.65l-17.44-7.28"/><path class="cls-2" d="m353.05,400.44s7.59,7.64,9.89,14.35c0,0,7.23,18.58-13.35,33.73"/><path class="cls-2" d="m326.43,414.79s7.19,18.89-6.08,14.08"/><line class="cls-2" x1="369.13" y1="466.11" x2="366.56" y2="476.06"/><line class="cls-2" x1="398.41" y1="458.6" x2="393.18" y2="471.5"/><ellipse class="cls-2" cx="435.69" cy="410.08" rx="4.02" ry="17.95" transform="translate(-30.16 34.61) rotate(-4.4)"/><line class="cls-2" x1="378.9" y1="363.6" x2="371.76" y2="375.75"/><line class="cls-2" x1="387.01" y1="367.97" x2="380.93" y2="377.62"/><line class="cls-2" x1="384" y1="378.06" x2="391.31" y2="370.51"/><path class="cls-2" d="m281.08,502.59s29.68,27.08,29.86,26.29"/><path class="cls-2" d="m259.27,461.73s-7.47,7.86-6.1,9.9,5.84,4.94,5.84,4.94"/><path class="cls-2" d="m287.83,448.84s3.76,7.63,14.65,7.58c5.32-.03,8.84-.04,8.84-.04"/><path class="cls-2" d="m293.52,476.41s26.62-6.93,28.71-6.36"/><path class="cls-2" d="m254.53,385.71s.48,34.39,4.6,46.69"/><path class="cls-2" d="m273.55,394.44s-2.65,21.48.11,22.56"/><path class="cls-2" d="m293.11,390.02s24.98-13.7,29.37-20.86"/><path class="cls-2" d="m287.36,347.21s5.37-1.16,23.51,13.17c13.24,10.45,19.26,15.57,19.26,15.57"/><path class="cls-2" d="m338.08,334.04s-31.39-.53-33.79-1.2,4.62-10.23,33.92-13.1"/><path class="cls-2" d="m288.5,313.87s6.8-6.18,22.12-5.91c15.32.27,13.16-5.21,13.16-5.21,0,0-1.65-10.85-7.45-11.5s-25.93.12-25.93.12"/><path class="cls-2" d="m297.25,228.9s17.75,47.72,9.71,51.5-15.16,1.44-15.16,1.44"/><path class="cls-2" d="m326.89,209.36s-34.43,26.17-6.26,31.99c0,0,8.92.96,10.52-1.68"/><path class="cls-2" d="m333.89,262.57s-25.53,16.35-10.13,14.5l11.2-4.29"/><line class="cls-2" x1="300.98" y1="353.2" x2="314.62" y2="376.52"/><path class="cls-2" d="m242.32,293.29s-25.92,31.07-26.15,54.24c-.23,23.17-1.3,20.15-1.3,20.15"/><path class="cls-2" d="m273.43,311.14l-14.84,4.89s-4.06,8.19,1.4,11.23,10.72-1.41,10.72-1.41"/><path class="cls-2" d="m218.12,248.22s11.48,19.97,13.4,25.75c1.93,5.78,7.52,14.54,13.68,23.61.89,1.3,1.74,4.64,2.32,9.29,2.32,18.57,1.48,57.23-3.53,59.68"/><path class="cls-2" d="m247.03,303.5s-39.17,39.96-23.26,43.99c0,0,7.69,4.01,16.17-12.99l8.48-17"/><path class="cls-2" d="m212.75,185.33c-1.22-.27-1.75,1.47-.6,1.93,17.32,6.92,50.55,19.32,61.06,17.04,11.13-2.41-37.57-13.85-60.46-18.97Z"/><path class="cls-2" d="m329.16,172.04s2.82,2.37,8.14-1.74c5.32-4.11,11.47-7.88,11.95-9.93s-1.9-3.05-1.9-3.05c0,0-19.79,9.97-18.19,14.72Z"/><path class="cls-2" d="m376.11,189.37s2.84,26.34-3.62,29.95c-6.45,3.61-16.42-31.02-16.42-31.02"/><path class="cls-2" d="m352.16,241.39s36.69-.17,22.6,9.07l-18.18,9.96"/><path class="cls-2" d="m394.3,214.69s-4.29,10.14-3.25,16.05c.38,2.17,2.36,3.71,4.56,3.7l5.28-.03"/><path class="cls-2" d="m405.71,250.66s-16.21-5.38-14.91,2.45,11.6,26.84,18.43,31.57,7.86,8.81,7.86,8.81"/><path class="cls-2" d="m359.53,277.67s27.58-4.46,31.36,8.46c3.78,12.92-4.81,21.81-21.37,24.32"/><path class="cls-2" d="m364.95,296.63s9-11.44,12.18-9.76-13.04-9.12-15.65-1.96"/><path class="cls-2" d="m366.91,302.43s20.28-10.75,24.02-5.54"/><path class="cls-1" d="m392.2,494.73s17.07,92.36,19.5,134.78c.86,14.98-18.92,3.74-20.79,3.06s-46.47-29.45-58.04-57.7-5.28-49.53,8.83-67.4c11.39-14.42,37.55-14.1,49.91-12.8.29.03.58.06.86.09"/><path class="cls-1" d="m383.16,495.58s-23.05,58.02,5.89,85.59c0,0,9.83,6.65,18.02,5.2"/><path class="cls-1" d="m328.59,532.88s18.06,7.83,44.88,55.81c1.68,3,3.82,5.73,6.4,7.99,4.18,3.67,10.88,8.18,18.54,8.18,11.01,0,12.84,18.17,12.84,18.17"/></svg>